# xmcd
#
# Track frame offsets:
#	150
#	13237
#	25968
#	40149
#	54955
#	67675
#	86048
#	98744
#	114891
#	128566
#	142701
#	158277
#	175821
#	186672
#
# Disc length: 2698 seconds
#
# Revision: 1
# Processed by: cddbd v1.4PL0 Copyright (c) Steve Scherf et al.
# Submitted via: audiograbber 1.81.02
#
DISCID=a30a880e
DTITLE=Καρράς Βασίλης - Χρέωσε το σε μένα
DYEAR=1994
DGENRE=
TTITLE0=Χρέωσε το σε μένα
TTITLE1=Σου χρειάζεται ένας άντρας
TTITLE2=Αγάπα με τις ώρες που μπορείς
TTITLE3=Δεν μ' ακούς
TTITLE4=Εμείς δεν έχουμε το ίδιο το φεγγάρι
TTITLE5=Δεν φεύγω
TTITLE6=Από που ν' αρχίσω
TTITLE7=Όταν τα χρόνια σου περάσουν
TTITLE8=Μόνιμος κάτοικος στο κορμί σου
TTITLE9=Που να σαι τέτοια ώρα
TTITLE10=Άδικα παραπονιέσαι
TTITLE11=Φτάνει
TTITLE12=Βάλε το σώμα σου μπροστά
TTITLE13=Χτυπάς ένα κορμί
EXTD=
EXTT0=
EXTT1=
EXTT2=
EXTT3=
EXTT4=
EXTT5=
EXTT6=
EXTT7=
EXTT8=
EXTT9=
EXTT10=
EXTT11=
EXTT12=
EXTT13=
PLAYORDER=
